<svg width="78" height="78" viewBox="0 0 78 78" fill="none" xmlns="http://www.w3.org/2000/svg">
<g clip-path="url(#clip0_6_5)">
<path d="M23.8042 53.1548C30.3118 53.1548 35.6818 48.2985 36.4972 42.013H41.5025C42.3182 48.2988 47.688 53.1548 54.1958 53.1548C61.2674 53.1548 67 47.4222 67 40.3506C67 33.49 61.604 27.8904 54.8249 27.5622V27.5464H42.377C43.0968 24.5063 45.8322 22.2369 49.0896 22.2369H54.0378V16.8452H49.0896C42.8514 16.8452 37.6876 21.5178 36.9051 27.5461H23.1751V27.562C16.396 27.8902 11 33.49 11 40.3506C11 47.4222 16.7326 53.1548 23.8042 53.1548ZM57.8218 34.0809C59.1226 34.0809 60.1769 35.1356 60.1769 36.4363C60.1769 37.7371 59.1226 38.7919 57.8218 38.7919C56.5209 38.7919 55.4667 37.7371 55.4667 36.4363C55.4667 35.1359 56.5209 34.0809 57.8218 34.0809ZM57.8218 40.5194C59.1226 40.5194 60.1769 41.5736 60.1769 42.8747C60.1769 44.1753 59.1226 45.2301 57.8218 45.2301C56.5209 45.2301 55.4667 44.1753 55.4667 42.8747C55.4667 41.5734 56.5209 40.5194 57.8218 40.5194ZM50.5271 34.0809C51.828 34.0809 52.8822 35.1356 52.8822 36.4363C52.8822 37.7371 51.828 38.7919 50.5271 38.7919C49.2263 38.7919 48.172 37.7371 48.172 36.4363C48.172 35.1359 49.2263 34.0809 50.5271 34.0809ZM50.5271 40.5194C51.828 40.5194 52.8822 41.5736 52.8822 42.8747C52.8822 44.1753 51.828 45.2301 50.5271 45.2301C49.2263 45.2301 48.172 44.1753 48.172 42.8747C48.172 41.5734 49.2263 40.5194 50.5271 40.5194ZM17.7842 38.0231H21.6289V34.3774H25.1199V38.0231H28.5668V41.5136H25.1197V45.1595H21.6287V41.5136H17.7842V38.0231Z" fill="white"/>
</g>
<circle cx="39" cy="39" r="37.5" stroke="white" stroke-width="3"/>
<defs>
<clipPath id="clip0_6_5">
<rect width="56" height="56" fill="white" transform="translate(11 7)"/>
</clipPath>
</defs>
</svg>
